<svg width="1429" height="520" viewBox="0 0 1429 520" fill="none" xmlns="http://www.w3.org/2000/svg">
<g clip-path="url(#clip0_771_856)">
<path d="M189 13.868C219.94 -3.996 258.06 -3.996 289 13.868L427.157 93.632C458.097 111.496 477.157 144.508 477.157 180.235V339.765C477.157 375.492 458.097 408.504 427.157 426.368L289 506.133C258.06 523.996 219.94 523.996 189 506.133L50.8428 426.368C19.9028 408.504 0.842773 375.492 0.842773 339.765V180.235C0.842773 144.508 19.9028 111.496 50.8428 93.632L189 13.868Z" fill="black"/>
<path d="M243 452V313.524C243 276.432 263.531 242.387 296.337 225.079L414 163" stroke="white" stroke-width="25" stroke-linecap="round"/>
<path d="M732.37 383.29C719.37 383.29 707.93 382.51 698.05 380.95C688.17 379.65 679.2 377.44 671.14 374.32C663.08 371.2 654.76 367.43 646.18 363.01V320.11C656.32 328.17 668.54 334.8 682.84 340C697.4 345.2 713 347.8 729.64 347.8C745.76 347.8 757.72 344.55 765.52 338.05C773.58 331.29 777.61 322.06 777.61 310.36C777.61 301.26 774.62 293.98 768.64 288.52C762.92 282.8 755.25 277.99 745.63 274.09C736.01 270.19 725.74 266.29 714.82 262.39C706.5 259.27 698.31 256.02 690.25 252.64C682.19 249 674.91 244.58 668.41 239.38C661.91 233.92 656.71 227.03 652.81 218.71C648.91 210.39 646.96 200.12 646.96 187.9C646.96 179.32 648.65 170.61 652.03 161.77C655.41 152.93 660.48 145 667.24 137.98C674.26 130.7 683.36 124.98 694.54 120.82C705.98 116.4 719.63 114.19 735.49 114.19C745.89 114.19 754.86 114.84 762.4 116.14C770.2 117.44 777.48 119.52 784.24 122.38C791.26 124.98 798.8 128.23 806.86 132.13V174.25C800.36 170.09 793.73 166.19 786.97 162.55C780.47 158.91 773.32 155.92 765.52 153.58C757.72 151.24 749.01 149.94 739.39 149.68C728.47 149.42 719.5 150.72 712.48 153.58C705.46 156.44 700.13 160.47 696.49 165.67C692.85 170.87 691.03 176.85 691.03 183.61C691.03 192.71 693.24 199.99 697.66 205.45C702.34 210.65 708.84 215.07 717.16 218.71C725.48 222.09 735.1 225.47 746.02 228.85C755.64 231.97 765 235.48 774.1 239.38C783.2 243.28 791.26 248.09 798.28 253.81C805.3 259.27 810.89 266.16 815.05 274.48C819.47 282.8 821.68 293.07 821.68 305.29C821.68 318.81 818.56 331.55 812.32 343.51C806.34 355.21 796.72 364.83 783.46 372.37C770.46 379.65 753.43 383.29 732.37 383.29ZM938.08 384.85C920.14 384.85 904.67 381.99 891.67 376.27C878.93 370.29 869.047 361.45 862.027 349.75C855.007 338.05 851.497 323.49 851.497 306.07V183.22H892.45V300.22C892.45 316.86 896.09 329.21 903.37 337.27C910.91 345.07 922.48 348.97 938.08 348.97C953.68 348.97 965.12 345.07 972.4 337.27C979.94 329.21 983.71 316.86 983.71 300.22V183.22H1023.1V306.07C1023.1 332.07 1015.56 351.7 1000.48 364.96C985.66 378.22 964.86 384.85 938.08 384.85ZM1138.88 384.85C1119.9 384.59 1103.78 380.69 1090.52 373.15C1077.52 365.35 1067.64 354.17 1060.88 339.61C1054.38 325.05 1051.13 307.37 1051.13 286.57C1051.13 264.47 1053.86 246.4 1059.32 232.36C1065.04 218.32 1072.71 207.4 1082.33 199.6C1092.21 191.8 1103.26 186.47 1115.48 183.61C1127.96 180.49 1140.83 178.93 1154.09 178.93C1168.13 178.93 1180.87 180.75 1192.31 184.39C1203.75 188.03 1212.98 193.62 1220 201.16C1227.02 208.44 1230.53 217.93 1230.53 229.63V384.85C1230.53 395.25 1228.84 404.87 1225.46 413.71C1222.34 422.81 1217.14 430.87 1209.86 437.89C1202.84 444.91 1193.48 450.37 1181.78 454.27C1170.08 458.17 1155.78 460.12 1138.88 460.12C1125.36 460.12 1113.27 458.95 1102.61 456.61C1091.95 454.53 1083.11 452.32 1076.09 449.98V412.54C1080.25 414.1 1085.45 415.79 1091.69 417.61C1097.93 419.43 1104.82 420.99 1112.36 422.29C1120.16 423.85 1128.09 424.63 1136.15 424.63C1151.49 424.63 1162.93 422.68 1170.47 418.78C1178.27 414.88 1183.47 409.81 1186.07 403.57C1188.67 397.59 1189.97 391.09 1189.97 384.07V354.43L1200.89 363.4C1196.21 367.3 1190.36 370.94 1183.34 374.32C1176.58 377.44 1169.3 379.91 1161.5 381.73C1153.96 383.81 1146.42 384.85 1138.88 384.85ZM1145.51 351.7C1153.05 351.7 1160.72 350.79 1168.52 348.97C1176.32 346.89 1183.47 343.9 1189.97 340V237.43C1189.97 230.67 1188.15 225.73 1184.51 222.61C1181.13 219.23 1176.45 216.89 1170.47 215.59C1164.49 214.29 1158.12 213.64 1151.36 213.64C1135.5 213.64 1123.28 216.89 1114.7 223.39C1106.38 229.63 1100.66 238.21 1097.54 249.13C1094.42 260.05 1092.86 272.14 1092.86 285.4C1092.86 305.16 1097.15 321.15 1105.73 333.37C1114.31 345.59 1127.57 351.7 1145.51 351.7ZM1338.6 384.85C1328.46 384.85 1318.71 383.81 1309.35 381.73C1299.99 379.91 1291.41 376.66 1283.61 371.98C1276.07 367.3 1269.96 360.93 1265.28 352.87C1260.86 344.55 1258.65 334.28 1258.65 322.06C1258.65 307.5 1261.51 295.54 1267.23 286.18C1272.95 276.82 1281.14 269.8 1291.8 265.12C1302.46 260.44 1315.2 258.1 1330.02 258.1C1339.9 258.1 1348.74 258.88 1356.54 260.44C1364.6 262 1371.75 264.21 1377.99 267.07C1384.49 269.67 1389.95 272.66 1394.37 276.04L1398.66 302.95C1392.94 299.05 1385.27 295.8 1375.65 293.2C1366.03 290.34 1355.63 288.91 1344.45 288.91C1329.63 288.91 1318.32 291.51 1310.52 296.71C1302.98 301.91 1299.21 309.71 1299.21 320.11C1299.21 327.91 1301.42 334.28 1305.84 339.22C1310.26 343.9 1315.72 347.41 1322.22 349.75C1328.98 351.83 1336 352.87 1343.28 352.87C1358.62 352.87 1369.93 351.83 1377.21 349.75C1384.49 347.67 1388.13 342.86 1388.13 335.32V253.42C1388.13 239.64 1383.97 229.63 1375.65 223.39C1367.33 216.89 1355.5 213.64 1340.16 213.64C1329.24 213.64 1317.93 215.46 1306.23 219.1C1294.53 222.48 1284.91 227.29 1277.37 233.53V195.31C1284.65 190.37 1295.18 186.47 1308.96 183.61C1323 180.49 1337.43 178.93 1352.25 178.93C1359.53 178.93 1366.81 179.71 1374.09 181.27C1381.63 182.57 1388.65 184.78 1395.15 187.9C1401.65 190.76 1407.37 194.79 1412.31 199.99C1417.51 204.93 1421.54 211.04 1424.4 218.32C1427.26 225.6 1428.69 234.18 1428.69 244.06V337.66C1428.69 350.4 1424.66 360.28 1416.6 367.3C1408.8 374.06 1398.14 378.61 1384.62 380.95C1371.1 383.55 1355.76 384.85 1338.6 384.85Z" fill="black"/>
</g>
<defs>
<clipPath id="clip0_771_856">
<rect width="1429" height="520" fill="white"/>
</clipPath>
</defs>
</svg>
