<svg width="32" height="32" viewBox="0 0 478 520" fill="none" xmlns="http://www.w3.org/2000/svg">
<g clip-path="url(#clip0_771_853)">
<path d="M189 13.868C219.94 -3.996 258.06 -3.996 289 13.868L427.157 93.632C458.097 111.496 477.157 144.508 477.157 180.235V339.765C477.157 375.492 458.097 408.504 427.157 426.368L289 506.133C258.06 523.996 219.94 523.996 189 506.133L50.843 426.368C19.903 408.504 0.843018 375.492 0.843018 339.765V180.235C0.843018 144.508 19.903 111.496 50.843 93.632L189 13.868Z" fill="black"/>
<path d="M243 452V313.524C243 276.432 263.531 242.387 296.337 225.079L414 163" stroke="white" stroke-width="25" stroke-linecap="round"/>
</g>
<defs>
<clipPath id="clip0_771_853">
<rect width="478" height="520" fill="white"/>
</clipPath>
</defs>
</svg>
